<svg width="258" height="54" viewBox="0 0 258 54" fill="none" xmlns="http://www.w3.org/2000/svg">
<ellipse cx="253.326" cy="40.792" rx="4.67391" ry="4.44405" fill="#F8FBFD"/>
<path d="M60.9011 46.2001C58.533 46.2001 56.3986 45.6704 54.4978 44.611C52.5971 43.5204 51.0859 42.0091 49.9641 40.0773C48.8736 38.1454 48.3283 35.8707 48.3283 33.2533C48.3283 30.6048 48.8736 28.3146 49.9641 26.3827C51.0859 24.4508 52.5971 22.9552 54.4978 21.8957C56.3986 20.8363 58.533 20.3066 60.9011 20.3066C63.0199 20.3066 64.8739 20.774 66.4631 21.7088C68.0522 22.6436 69.283 24.0613 70.1554 25.962C71.0279 27.8628 71.4641 30.2932 71.4641 33.2533C71.4641 36.1823 71.0435 38.6128 70.2022 40.5446C69.3609 42.4454 68.1457 43.8631 66.5565 44.7979C64.9986 45.7327 63.1134 46.2001 60.9011 46.2001ZM62.1631 40.2175C63.3471 40.2175 64.4221 39.937 65.3881 39.3762C66.354 38.8153 67.1174 38.0207 67.6783 36.9925C68.2703 35.9331 68.5663 34.6867 68.5663 33.2533C68.5663 31.7889 68.2703 30.5425 67.6783 29.5142C67.1174 28.486 66.354 27.6914 65.3881 27.1305C64.4221 26.5696 63.3471 26.2892 62.1631 26.2892C60.9478 26.2892 59.8573 26.5696 58.8913 27.1305C57.9254 27.6914 57.1464 28.486 56.5544 29.5142C55.9935 30.5425 55.713 31.7889 55.713 33.2533C55.713 34.6867 55.9935 35.9331 56.5544 36.9925C57.1464 38.0207 57.9254 38.8153 58.8913 39.3762C59.8573 39.937 60.9478 40.2175 62.1631 40.2175ZM68.7533 45.8262V40.6849L68.8935 33.2066L68.4261 25.7751V11.1457H75.7174V45.8262H68.7533ZM93.0755 46.2001C90.9878 46.2001 89.1183 45.795 87.4668 44.9849C85.8465 44.1747 84.5846 42.9439 83.6809 41.2925C82.7773 39.6099 82.3255 37.4754 82.3255 34.8892V20.6805H89.6168V33.8142C89.6168 35.9019 90.053 37.4443 90.9255 38.4414C91.8291 39.4073 93.0911 39.8903 94.7114 39.8903C95.8331 39.8903 96.8302 39.6566 97.7027 39.1892C98.5752 38.6907 99.2607 37.9428 99.7592 36.9457C100.258 35.9175 100.507 34.6399 100.507 33.1131V20.6805H107.798V45.8262H100.881V38.9088L102.143 40.9186C101.302 42.6635 100.055 43.9878 98.4038 44.8914C96.7835 45.7639 95.0074 46.2001 93.0755 46.2001ZM125.584 46.0599C123.247 46.0599 121.143 45.5302 119.274 44.4707C117.435 43.4113 115.987 41.9468 114.927 40.0773C113.868 38.1765 113.338 35.9954 113.338 33.5338C113.338 31.041 113.868 28.8599 114.927 26.9903C115.987 25.1207 117.435 23.6718 119.274 22.6436C121.143 21.5841 123.247 21.0544 125.584 21.0544C127.734 21.0544 129.65 21.5374 131.333 22.5033C133.046 23.4693 134.402 24.887 135.399 26.7566C136.427 28.595 136.941 30.8541 136.941 33.5338C136.941 36.1823 136.443 38.4414 135.446 40.311C134.449 42.1805 133.093 43.6139 131.379 44.611C129.697 45.5769 127.765 46.0599 125.584 46.0599ZM125.817 43.1153C127.562 43.1153 129.12 42.7258 130.491 41.9468C131.893 41.1367 132.984 40.0149 133.763 38.5816C134.573 37.1171 134.978 35.4345 134.978 33.5338C134.978 31.6019 134.573 29.9193 133.763 28.486C132.984 27.0526 131.893 25.9465 130.491 25.1675C129.12 24.3573 127.562 23.9523 125.817 23.9523C124.104 23.9523 122.561 24.3573 121.19 25.1675C119.819 25.9465 118.729 27.0526 117.918 28.486C117.108 29.9193 116.703 31.6019 116.703 33.5338C116.703 35.4345 117.108 37.1171 117.918 38.5816C118.729 40.0149 119.819 41.1367 121.19 41.9468C122.561 42.7258 124.104 43.1153 125.817 43.1153ZM135.072 45.8262V38.4414L135.399 33.487L134.931 28.5327V11.1457H138.25V45.8262H135.072ZM157.915 46.0599C155.36 46.0599 153.116 45.5302 151.184 44.4707C149.252 43.3802 147.741 41.9001 146.651 40.0305C145.56 38.1298 145.015 35.9642 145.015 33.5338C145.015 31.1033 145.529 28.9533 146.557 27.0838C147.617 25.2142 149.05 23.7497 150.857 22.6903C152.696 21.5997 154.752 21.0544 157.027 21.0544C159.332 21.0544 161.373 21.5841 163.15 22.6436C164.957 23.6718 166.375 25.1363 167.403 27.037C168.431 28.9066 168.945 31.0722 168.945 33.5338C168.945 33.6896 168.93 33.861 168.898 34.0479C168.898 34.2037 168.898 34.3751 168.898 34.562H147.539V32.0849H167.122L165.814 33.0664C165.814 31.2903 165.424 29.7168 164.645 28.3457C163.897 26.9436 162.869 25.853 161.56 25.074C160.252 24.295 158.74 23.9055 157.027 23.9055C155.344 23.9055 153.833 24.295 152.493 25.074C151.153 25.853 150.109 26.9436 149.361 28.3457C148.614 29.7479 148.24 31.3526 148.24 33.1599V33.674C148.24 35.5436 148.645 37.195 149.455 38.6283C150.296 40.0305 151.449 41.1367 152.914 41.9468C154.409 42.7258 156.107 43.1153 158.008 43.1153C159.504 43.1153 160.89 42.8504 162.168 42.3207C163.477 41.791 164.598 40.9809 165.533 39.8903L167.403 42.0403C166.312 43.349 164.941 44.3461 163.29 45.0316C161.669 45.7171 159.878 46.0599 157.915 46.0599ZM182.29 46.0599C180.265 46.0599 178.348 45.7794 176.541 45.2186C174.734 44.6265 173.316 43.8943 172.288 43.0218L173.783 40.4044C174.781 41.1523 176.058 41.8066 177.616 42.3675C179.174 42.8972 180.81 43.162 182.524 43.162C184.861 43.162 186.543 42.8037 187.571 42.087C188.6 41.3392 189.114 40.3577 189.114 39.1425C189.114 38.2389 188.818 37.5378 188.226 37.0392C187.665 36.5095 186.917 36.12 185.982 35.8707C185.048 35.5903 184.004 35.3566 182.851 35.1696C181.698 34.9827 180.545 34.7646 179.392 34.5153C178.27 34.266 177.242 33.9077 176.307 33.4403C175.373 32.9418 174.609 32.2718 174.017 31.4305C173.456 30.5892 173.176 29.4675 173.176 28.0653C173.176 26.7254 173.55 25.5258 174.298 24.4664C175.045 23.407 176.136 22.5812 177.569 21.9892C179.034 21.366 180.81 21.0544 182.898 21.0544C184.487 21.0544 186.076 21.2725 187.665 21.7088C189.254 22.1139 190.563 22.6591 191.591 23.3446L190.142 26.0088C189.052 25.261 187.883 24.7312 186.637 24.4196C185.39 24.0769 184.144 23.9055 182.898 23.9055C180.685 23.9055 179.049 24.295 177.99 25.074C176.962 25.8218 176.448 26.7878 176.448 27.9718C176.448 28.9066 176.728 29.6389 177.289 30.1686C177.881 30.6983 178.644 31.1189 179.579 31.4305C180.545 31.711 181.589 31.9446 182.711 32.1316C183.863 32.3186 185.001 32.5523 186.123 32.8327C187.275 33.082 188.319 33.4403 189.254 33.9077C190.22 34.3439 190.983 34.9827 191.544 35.824C192.136 36.6341 192.432 37.7091 192.432 39.049C192.432 40.4823 192.027 41.7287 191.217 42.7881C190.438 43.8164 189.285 44.6265 187.758 45.2186C186.263 45.7794 184.44 46.0599 182.29 46.0599ZM201.139 39.4696L201.232 35.2164L216.516 21.2881H220.582L209.786 31.6175L207.916 33.2066L201.139 39.4696ZM198.522 45.8262V11.1457H201.84V45.8262H198.522ZM217.544 45.8262L207.309 33.0664L209.459 30.4957L221.611 45.8262H217.544ZM232.452 46.0599C230.427 46.0599 228.511 45.7794 226.703 45.2186C224.896 44.6265 223.478 43.8943 222.45 43.0218L223.946 40.4044C224.943 41.1523 226.22 41.8066 227.778 42.3675C229.336 42.8972 230.972 43.162 232.686 43.162C235.023 43.162 236.706 42.8037 237.734 42.087C238.762 41.3392 239.276 40.3577 239.276 39.1425C239.276 38.2389 238.98 37.5378 238.388 37.0392C237.827 36.5095 237.08 36.12 236.145 35.8707C235.21 35.5903 234.166 35.3566 233.013 35.1696C231.86 34.9827 230.707 34.7646 229.555 34.5153C228.433 34.266 227.405 33.9077 226.47 33.4403C225.535 32.9418 224.772 32.2718 224.18 31.4305C223.619 30.5892 223.338 29.4675 223.338 28.0653C223.338 26.7254 223.712 25.5258 224.46 24.4664C225.208 23.407 226.298 22.5812 227.732 21.9892C229.196 21.366 230.972 21.0544 233.06 21.0544C234.649 21.0544 236.238 21.2725 237.827 21.7088C239.416 22.1139 240.725 22.6591 241.753 23.3446L240.305 26.0088C239.214 25.261 238.045 24.7312 236.799 24.4196C235.553 24.0769 234.306 23.9055 233.06 23.9055C230.848 23.9055 229.212 24.295 228.152 25.074C227.124 25.8218 226.61 26.7878 226.61 27.9718C226.61 28.9066 226.89 29.6389 227.451 30.1686C228.043 30.6983 228.807 31.1189 229.741 31.4305C230.707 31.711 231.751 31.9446 232.873 32.1316C234.026 32.3186 235.163 32.5523 236.285 32.8327C237.438 33.082 238.482 33.4403 239.416 33.9077C240.382 34.3439 241.146 34.9827 241.707 35.824C242.299 36.6341 242.595 37.7091 242.595 39.049C242.595 40.4823 242.19 41.7287 241.38 42.7881C240.601 43.8164 239.448 44.6265 237.921 45.2186C236.425 45.7794 234.602 46.0599 232.452 46.0599Z" fill="#F8FBFD"/>
<path d="M0 21.3118C0 15.1606 4.98654 10.1741 11.1377 10.1741H43C43 16.3253 38.0135 21.3118 31.8623 21.3118H0Z" fill="#F8FBFD"/>
<path d="M0 32.9076C0 27.6022 4.30092 23.3013 9.60638 23.3013H34.7389C34.7389 29.4525 29.7524 34.439 23.6012 34.439H0V32.9076Z" fill="#F8FBFD"/>
<path d="M0 36.4277H43C43 42.5789 38.0135 47.5655 31.8623 47.5655H11.1377C4.98654 47.5655 0 42.5789 0 36.4277Z" fill="#F8FBFD"/>
</svg>
