<svg width="28" height="28" viewBox="0 0 28 28" fill="none" xmlns="http://www.w3.org/2000/svg">
<rect width="28" height="28" rx="14" fill="#E2E9F6"/>
<path d="M14 18.4686C13.1494 18.8659 12.032 19.1069 10.8082 19.1069C10.1277 19.1069 9.48017 19.0324 8.89307 18.8979C8.51566 18.8115 8.32696 18.7683 8.10084 18.5894C7.97188 18.4873 7.81093 18.2853 7.74025 18.1368C7.61633 17.8765 7.61633 17.624 7.61633 17.1191V10.2426C7.61633 9.61387 8.28025 9.18207 8.89307 9.32243C9.48017 9.45691 10.1277 9.53143 10.8082 9.53143C12.032 9.53143 13.1494 9.29036 14 8.89307C14.8507 8.49577 15.968 8.2547 17.1918 8.2547C17.8723 8.2547 18.5198 8.32923 19.1069 8.4637C19.4843 8.55014 19.673 8.59336 19.8992 8.77228C20.0281 8.87432 20.1891 9.07631 20.2598 9.2248C20.3837 9.48516 20.3837 9.73762 20.3837 10.2426V13.6808" stroke="#002F49" stroke-opacity="0.95" stroke-width="0.957551" stroke-linecap="round"/>
<path d="M18.1494 19.7454L18.1494 15.2768M15.9152 17.5111H20.3837" stroke="#002F49" stroke-opacity="0.95" stroke-width="0.957551" stroke-linecap="round"/>
<path d="M15.5959 13.6809C15.5959 14.5623 14.8814 15.2768 14 15.2768C13.1186 15.2768 12.4041 14.5623 12.4041 13.6809C12.4041 12.7995 13.1186 12.085 14 12.085C14.8814 12.085 15.5959 12.7995 15.5959 13.6809Z" stroke="#002F49" stroke-opacity="0.95" stroke-width="0.957551"/>
<path d="M9.85059 14.3192L9.85059 14.325" stroke="#002F49" stroke-opacity="0.95" stroke-width="1.27673" stroke-linecap="round" stroke-linejoin="round"/>
</svg>
